<svg width="32.000000" height="32.000000" viewBox="0 0 32 32" fill="none" xmlns="http://www.w3.org/2000/svg" xmlns:xlink="http://www.w3.org/1999/xlink">
	<desc>
			Created with Pixso.
	</desc>
	<defs>
		<clipPath id="clip29_126">
			<rect id="percent" rx="0.000000" width="31.000000" height="31.000000" transform="translate(0.500000 0.500000)" fill="white" fill-opacity="0"/>
		</clipPath>
	</defs>
	<rect id="percent" rx="0.000000" width="31.000000" height="31.000000" transform="translate(0.500000 0.500000)" fill="#FFFFFF" fill-opacity="0"/>
	<g clip-path="url(#clip29_126)">
		<path id="Vector" d="M25.33 6.66L6.66 25.33" stroke="#258640" stroke-opacity="1.000000" stroke-width="3.000000" stroke-linejoin="round" stroke-linecap="round"/>
		<path id="Vector" d="M8.66 12C6.82 12 5.33 10.5 5.33 8.66C5.33 6.82 6.82 5.33 8.66 5.33C10.5 5.33 12 6.82 12 8.66C12 10.5 10.5 12 8.66 12Z" stroke="#258640" stroke-opacity="1.000000" stroke-width="3.000000" stroke-linejoin="round"/>
		<path id="Vector" d="M23.33 26.66C21.49 26.66 20 25.17 20 23.33C20 21.49 21.49 20 23.33 20C25.17 20 26.66 21.49 26.66 23.33C26.66 25.17 25.17 26.66 23.33 26.66Z" stroke="#258640" stroke-opacity="1.000000" stroke-width="3.000000" stroke-linejoin="round"/>
	</g>
</svg>
