<svg xmlns="http://www.w3.org/2000/svg" width="512" height="512" style="shape-rendering:geometricPrecision;text-rendering:geometricPrecision;image-rendering:optimizeQuality;fill-rule:evenodd;clip-rule:evenodd"><path fill="#323332" d="M215.5-.5h80c1.636 1.249 2.803 2.916 3.5 5a2608.708 2608.708 0 0 0 16.5 83 327.084 327.084 0 0 1 31 14.5 644.176 644.176 0 0 0 26 17.5 10240.802 10240.802 0 0 0 76-26.5c3.744-.928 7.244-.428 10.5 1.5l37 64c1.297 4.617.13 8.45-3.5 11.5a1201.218 1201.218 0 0 0-62 54c3.793 21.513 3.959 43.013.5 64.5a3944.12 3944.12 0 0 1 64 55c1.457 2.866 1.79 5.866 1 9l-37 64c-3.256 1.929-6.756 2.429-10.5 1.5a10240.802 10240.802 0 0 0-76-26.5 644.176 644.176 0 0 0-26 17.5 327.994 327.994 0 0 1-31 14.5 2611.2 2611.2 0 0 0-16.5 83c-.697 2.084-1.864 3.751-3.5 5h-80c-1.636-1.249-2.803-2.916-3.5-5a2717.787 2717.787 0 0 0-16.5-83 327.133 327.133 0 0 1-31-14.5 644.176 644.176 0 0 0-26-17.5 10244 10244 0 0 0-76 26.5c-3.744.929-7.244.429-10.5-1.5l-37-64c-1.297-4.617-.13-8.45 3.5-11.5a1201.007 1201.007 0 0 0 62-54c-3.795-21.513-3.962-43.013-.5-64.5a3945.401 3945.401 0 0 1-64-55c-1.457-2.866-1.79-5.866-1-9l37-64c3.256-1.928 6.756-2.428 10.5-1.5a10244 10244 0 0 0 76 26.5 644.176 644.176 0 0 0 26-17.5 327.084 327.084 0 0 1 31-14.5 2717.485 2717.485 0 0 0 16.5-83c.697-2.084 1.864-3.751 3.5-5Zm35 126c57.906 1.448 99.406 28.115 124.5 80 21.196 60.722 7.363 111.889-41.5 153.5-46.345 31.727-94.345 34.394-144 8-48.241-31.991-68.741-76.824-61.5-134.5 9.954-44.95 35.787-77.117 77.5-96.5 14.587-5.88 29.587-9.38 45-10.5Z" style="opacity:.971"/><path fill="#009833" d="M224.5 12.5h62a17680.69 17680.69 0 0 0 15.5 82 12.409 12.409 0 0 0 2.5 4c22.828 7.74 43.161 19.574 61 35.5a10.258 10.258 0 0 0 4 1.5 5680.374 5680.374 0 0 0 80-28 2087.542 2087.542 0 0 1 31 53 5131.118 5131.118 0 0 1-63.5 56l-.5 4.5a201.51 201.51 0 0 1 3 34.5c-.592 13.05-1.425 26.05-2.5 39l63 55c-1.392 4.46-3.392 8.793-6 13l-24.5 41a5680.374 5680.374 0 0 0-80-28 125.947 125.947 0 0 0-17 12.5c-14.719 10.527-30.719 18.694-48 24.5-1.98 2.295-3.147 4.961-3.5 8a5344.565 5344.565 0 0 0-14.5 78h-62a5344.565 5344.565 0 0 0-14.5-78c-.353-3.039-1.52-5.705-3.5-8-22.828-7.74-43.161-19.574-61-35.5a10.258 10.258 0 0 0-4-1.5 5679.93 5679.93 0 0 0-80 28 2089.04 2089.04 0 0 1-31-53 5133.305 5133.305 0 0 1 63.5-56l.5-4.5a227.518 227.518 0 0 1-3-36 872.441 872.441 0 0 1 2.5-37.5l-63-55c1.392-4.46 3.392-8.793 6-13l24.5-41a5679.93 5679.93 0 0 0 80 28 125.947 125.947 0 0 0 17-12.5c14.719-10.527 30.719-18.694 48-24.5a12.409 12.409 0 0 0 2.5-4 17680.69 17680.69 0 0 0 15.5-82Zm26 113c-15.413 1.12-30.413 4.62-45 10.5-41.713 19.383-67.546 51.55-77.5 96.5-7.241 57.676 13.259 102.509 61.5 134.5 49.655 26.394 97.655 23.727 144-8 48.863-41.611 62.696-92.778 41.5-153.5-25.094-51.885-66.594-78.552-124.5-80Z" style="opacity:.999"/><path fill="#323332" d="M238.5 112.5c63.373-4.069 111.206 20.931 143.5 75 17.769 34.866 21.436 71.199 11 109-18.856 55.523-57.022 89.023-114.5 100.5-62.275 7.439-110.775-14.728-145.5-66.5-23.115-40.951-26.782-83.618-11-128 22.639-51.059 61.473-81.059 116.5-90Zm12 13c-15.413 1.12-30.413 4.62-45 10.5-41.713 19.383-67.546 51.55-77.5 96.5-7.241 57.676 13.259 102.509 61.5 134.5 49.655 26.394 97.655 23.727 144-8 48.863-41.611 62.696-92.778 41.5-153.5-25.094-51.885-66.594-78.552-124.5-80Z" style="opacity:.972"/><path fill="#333433" d="M251.5 131.5a32.462 32.462 0 0 1 8 .5c29.532 17.864 51.699 42.364 66.5 73.5 12.542 34.281 12.542 68.615 0 103-8.71 22.709-24.21 38.876-46.5 48.5a51.582 51.582 0 0 1-17 3.5 112.97 112.97 0 0 1-.5 15c-1.018 3.183-3.185 4.516-6.5 4-3.315.516-5.482-.817-6.5-4a112.97 112.97 0 0 1-.5-15c-27.207-4.028-47.04-18.361-59.5-43-26.534-63-15.034-117.834 34.5-164.5a811.102 811.102 0 0 1 28-21.5Z" style="opacity:.978"/><path fill="#7cd43d" d="M254.5 146.5c27.828 16.621 47.995 39.954 60.5 70 10.103 32.398 8.103 64.065-6 95-7.222 14.222-18.056 24.722-32.5 31.5a53.93 53.93 0 0 1-14 3.5 576.95 576.95 0 0 1 1-48l32-21c2.622-3.465 2.622-6.965 0-10.5-1.865-1.301-3.865-1.635-6-1a524.06 524.06 0 0 0-26 16.5 193.256 193.256 0 0 1-.5-34 588.29 588.29 0 0 0 34-23c1.618-7.295-1.215-10.462-8.5-9.5a1017.442 1017.442 0 0 1-25.5 16.5l-1-27c-1.018-3.183-3.185-4.516-6.5-4-3.315-.516-5.482.817-6.5 4l-1 27a1017.442 1017.442 0 0 1-25.5-16.5c-7.285-.962-10.118 2.205-8.5 9.5a588.29 588.29 0 0 0 34 23 289.106 289.106 0 0 1 0 34 1079.158 1079.158 0 0 0-26.5-16.5c-5.129-.929-7.796 1.237-8 6.5-.063 1.981.604 3.648 2 5a1651.334 1651.334 0 0 0 32.5 21c.5 15.997.667 31.997.5 48-18.364-2.934-32.531-12.267-42.5-28-29.512-58.761-20.346-110.595 27.5-155.5 6.9-5.745 13.9-11.245 21-16.5Z" style="opacity:1"/></svg>
