<svg xmlns="http://www.w3.org/2000/svg" width="32" height="32" style="shape-rendering:geometricPrecision;text-rendering:geometricPrecision;image-rendering:optimizeQuality;fill-rule:evenodd;clip-rule:evenodd"><path fill="#a7a7a7" d="M.5 6.5h6c-.267 4.88 1.4 8.88 5 12a36.874 36.874 0 0 0 1-12h5c-.807 7.592 1.026 8.592 5.5 3 .483-.948.65-1.948.5-3a9.865 9.865 0 0 1 6 1c-1.14 3.447-3.14 6.28-6 8.5 3.595 1.764 5.928 4.598 7 8.5-2 1.333-4 1.333-6 0-1.24-3.245-3.573-4.912-7-5v6C6.122 24.47.455 18.137.5 6.5Z" style="opacity:.868"/></svg>