<svg xmlns="http://www.w3.org/2000/svg" width="32" height="32" style="shape-rendering:geometricPrecision;text-rendering:geometricPrecision;image-rendering:optimizeQuality;fill-rule:evenodd;clip-rule:evenodd"><path fill="#a7a7a7" d="M11.5 4.5c5.36.17 10.692.67 16 1.5 2.413 3.213 3.413 6.88 3 11 .193 3.243-.473 6.243-2 9a46.797 46.797 0 0 1-13 1.5l-11-.5A9.468 9.468 0 0 1 2 25.5C.483 19.92.15 14.253 1 8.5c.5-1.167 1.333-2 2.5-2.5 2.865-.183 5.531-.683 8-1.5Zm1 8 7 3.5-6.5 4.5a32.437 32.437 0 0 1-.5-8Z" style="opacity:.926"/></svg>